# xmcd
#
# Track frame offsets:
#	150
#	14039
#	31522
#	46388
#	60732
#	73883
#	88055
#	103486
#	120971
#	135431
#	152423
#	163568
#
# Disc length: 2357 seconds
#
# Revision: 1
# Processed by: cddbd v1.5.2PL0 Copyright (c) Steve Scherf et al.
# Submitted via: audiograbber 1.83.01
#
DISCID=9909330c
DTITLE=Terry Clark - Terry Clark
DYEAR=1900
DGENRE=Country
TTITLE0=Better things to do 
TTITLE1=If I were you
TTITLE2=Catch
TTITLE3=Is fort worth worth it
TTITLE4=When boy meets girl
TTITLE5=Tyin' a heart to a tumbleweed
TTITLE6=When we had it bad
TTITLE7=Suddenly signle
TTITLE8=Flowers after the fact
TTITLE9=The inside story
TTITLE10=Whas there a girl on your boys' night out
TTITLE11=Something you should've said
EXTD=
EXTT0=
EXTT1=
EXTT2=
EXTT3=
EXTT4=
EXTT5=
EXTT6=
EXTT7=
EXTT8=
EXTT9=
EXTT10=
EXTT11=
PLAYORDER=
